<svg width="0" height="0" class="hidden">
  <symbol xmlns="http://www.w3.org/2000/svg" viewBox="0 0 31 31" id="basket">
    <path d="M10.911 23.918a3.545 3.545 0 00-3.54 3.541A3.545 3.545 0 0010.91 31a3.545 3.545 0 003.541-3.54 3.545 3.545 0 00-3.54-3.542zm0 4.915a1.374 1.374 0 01-1.373-1.373 1.374 1.374 0 111.373 1.373zm12.863-4.915a3.545 3.545 0 00-3.54 3.541A3.545 3.545 0 0023.773 31a3.545 3.545 0 003.541-3.54 3.545 3.545 0 00-3.54-3.542zm0 4.914a1.375 1.375 0 01-1.373-1.373 1.374 1.374 0 012.746 0c0 .758-.615 1.373-1.373 1.373zM9.358 22.835H26.23a1.084 1.084 0 100-2.168H10.279L7.176 1.632A1.084 1.084 0 006.292.74L2.137.016a1.083 1.083 0 10-.372 2.136l3.395.59 3.128 19.183c.086.525.538.91 1.07.91z"></path>
    <path d="M29.925 7.022a1.083 1.083 0 00-.876-.446H7.009v2.168h20.553l-2.23 6.937H8.563v2.168h17.56c.471 0 .888-.305 1.033-.753l2.926-9.104c.106-.33.048-.69-.156-.97z" fill="#000"></path>
  </symbol>
  
  <symbol fill="none" xmlns="http://www.w3.org/2000/svg" viewBox="0 0 37 43" id="logo">
    <path d="M16.838 25.361H9.392L7.72 30H5.303l6.787-17.773h2.05L20.94 30h-2.405l-1.697-4.639zM10.1 23.433h6.043l-3.028-8.313-3.015 8.313zm19.978 1.792h1.973v1.474h-1.973V30h-1.816v-3.3h-6.475v-1.065l6.367-9.854h1.924v9.444zm-6.24 0h4.424v-6.973l-.215.39-4.21 6.583z" fill="#7268EF"></path>
    <path d="M31 1v5h5" stroke="#7268EF" stroke-width="2"></path>
    <path stroke="#7268EF" stroke-width="2" d="M2 1h34v41H2z"></path>
  </symbol>

  <symbol fill="none" xmlns="http://www.w3.org/2000/svg" viewBox="0 0 5 2" id="minus">
    <path d="M4.358 1.493H.308V.239h4.05v1.254z" fill="#000"></path>
  </symbol>
  
  <symbol fill="none" xmlns="http://www.w3.org/2000/svg" viewBox="0 0 9 10" id="plus">
    <path d="M5.562 4.517h3.37V5.97h-3.37v3.818H4.018V5.97H.648V4.517h3.37V.99h1.544v3.528z" fill="#000"></path>
  </symbol>
</svg>